<svg width="87" height="32" fill="none" xmlns="http://www.w3.org/2000/svg"><path d="M13.802 25.797l-.197-5.135c-.55.118-1.18.197-1.77.197-1.493 0-2.87-.592-2.87-2.489V9.956h4.444V4.622H8.965V0L2.792.553v4.07H0v5.333h2.792v8.414c0 5.57 2.87 7.783 7.628 7.744 1.023 0 2.163-.119 3.382-.317zM38.068 15.091c0-15.21-22.688-15.249-22.688 0 0 15.131 22.688 15.21 22.688 0zm-16.476 0c0-7.23 10.263-7.269 10.263 0 0 7.19-10.263 7.151-10.263 0zM52.757 26.114c6.88 0 10.223-4.82 10.302-10.667.04-5.887-3.46-11.338-10.224-11.338-2.044 0-4.129.592-5.584 2.41V4.385h-6.134V32h6.135v-8.217c1.415 1.62 3.42 2.33 5.505 2.33zm-.669-16.04c3.185 0 4.797 2.647 4.758 5.215-.04 2.568-1.612 5.096-4.758 5.096-2.674 0-4.837-2.33-4.837-5.175 0-2.845 2.163-5.136 4.837-5.136z" fill="#461B93"/><path d="M76.58 10.43l-1.888-3.674-1.533-2.41h-6.882v.632l6.292 9.916-6.37 10.43v.434h6.881l1.494-2.568 2.006-3.95 2.005 3.95 1.534 2.568H87v-.434l-6.37-10.43 6.291-9.916v-.632H80.04l-1.573 2.41-1.887 3.674z" fill="#6A3CBC"/></svg>