<svg width="14" height="14" viewBox="0 0 14 14" fill="none" xmlns="http://www.w3.org/2000/svg">
<path fill-rule="evenodd" clip-rule="evenodd" d="M5.99994 9.9998L3.27702 11.4313C2.95112 11.6027 2.54804 11.4774 2.3767 11.1515C2.30848 11.0217 2.28494 10.873 2.30972 10.7285L2.82975 7.69653L0.626863 5.54924C0.363207 5.29224 0.357812 4.87016 0.614813 4.60651C0.717152 4.50152 0.851247 4.43319 0.996339 4.41211L4.04066 3.96975L5.40212 1.21113C5.56506 0.880958 5.96481 0.745399 6.29498 0.908347C6.42646 0.973234 6.53288 1.07965 6.59776 1.21113L7.95922 3.96975L11.0035 4.41211C11.3679 4.46506 11.6204 4.80335 11.5674 5.16772C11.5463 5.31281 11.478 5.4469 11.373 5.54924L9.17013 7.69653L9.69016 10.7285C9.7524 11.0914 9.50867 11.4361 9.14578 11.4983C9.00128 11.5231 8.85263 11.4996 8.72286 11.4313L5.99994 9.9998Z" fill="#FED330"/>
</svg>
